<?xml version="1.0" encoding="UTF-8"?>
<svg xmlns="http://www.w3.org/2000/svg" xmlns:xlink="http://www.w3.org/1999/xlink" width="500" height="500" data-name="Layer 1">
  <defs>
    <linearGradient y2=".5" x2="1.016" y1=".5" x1="-.016" id="b">
      <stop stop-color="#2ecc71" offset="0"></stop>
      <stop stop-color="#2ac979" offset=".3"></stop>
      <stop stop-color="#20c18e" offset=".76"></stop>
      <stop stop-color="#1abc9c" offset="1"></stop>
    </linearGradient>
    <linearGradient y2=".5" x2="1" y1=".5" x1="0" id="a">
      <stop stop-color="#2ecc71" offset="0"></stop>
      <stop stop-color="#2ac97a" offset=".31"></stop>
      <stop stop-color="#1fc091" offset=".81"></stop>
      <stop stop-color="#1abc9c" offset="1"></stop>
    </linearGradient>
    <linearGradient xlink:href="#a" y2="155.04" x2="458.34" y1="155.04" x1="442.47" id="c"></linearGradient>
    <linearGradient xlink:href="#a" y2="162.88" x2="61.67" y1="162.88" x1="45.81" id="d"></linearGradient>
  </defs>
  <circle stroke="url(#b)" stroke-width="14" stroke-miterlimit="10" fill="#9eefd2" r="225" cy="264" cx="249.33" class="cls-1"></circle>
  <path fill="#1abc9c" d="M465.29 348.69a232.39 232.39 0 0 1-66.4 92.63l-11.39-8.73A225.41 225.41 0 0 0 452.91 342l12.38 6.69z" class="cls-2"></path>
  <path fill="#2ecc71" d="M33.5 348.69a232.39 232.39 0 0 0 66.4 92.63l11.39-8.73A225.41 225.41 0 0 1 45.88 342l-12.38 6.69z" class="cls-3"></path>
  <path fill="#fff" d="M45.84 375.5A279.51 279.51 0 0 0 82 424.75l-36.17.08.01-49.33zM453 375.5a279.51 279.51 0 0 1-36.16 49.25l36.17.08-.01-49.33z" class="cls-4"></path>
  <path fill="#e2f7f2" d="M159 306.59a20.61 20.61 0 1 1-23.18-4.17 20.65 20.65 0 0 1 23.18 4.17z" class="cls-5"></path>
  <path fill="#e2f7f2" d="M188.94 336.52a20.6 20.6 0 1 1-23.17-4.17 20.61 20.61 0 0 1 23.17 4.17z" class="cls-5"></path>
  <path fill="#e2f7f2" d="M218.1 365.68a20.63 20.63 0 0 1 4.23 23 20.38 20.38 0 0 1-4.23 6.14 20.62 20.62 0 1 1 0-29.16v.02zM394.57 231.16a117.17 117.17 0 0 1-32.46 62.13L350.4 305l-90.2-90.2-.41-.4c-.07-.06-.13-.13-.19-.19l-.31-.3c-.16-.17-.24-.24-.24-.24l-12.29-12.3-30.29 30.29a23.88 23.88 0 0 1-33.78-33.78l52.25-52.26a60.57 60.57 0 0 1 67.8-12.32 32.56 32.56 0 0 0 36.56-6.47l16.7-16.67 76.15 76.15-.86.86-28.42 28.42a29.51 29.51 0 0 0-8.3 15.57z" class="cls-5"></path>
  <path fill="#c2f9ec" class="cls-6" d="m490.04 147.91-48.16 48.17-9.77-9.77-76.16-76.15-10.41-10.42 48.17-48.17 96.33 96.34z"></path>
  <path fill="#e2f7f2" d="m322.48 332 5.94 6a18.74 18.74 0 0 1-26.51 26.5l-14-14a18.73 18.73 0 0 1-26.66 26.33l-18.09-18.13a18.73 18.73 0 0 1-24.7 28.07 20.62 20.62 0 0 0-33.4-23 20.62 20.62 0 0 0-23.17-33.33l-.91-.91-.66-.66h-1.51A20.63 20.63 0 0 0 132 300.48l-9.14-9.14A117.18 117.18 0 0 1 90.49 230a32.23 32.23 0 0 0-8.95-16.9l-19.59-19.6 90.78-90.78 25.44 25.44a32.77 32.77 0 0 0 34.52 7.34 45.68 45.68 0 0 1 29.43-.57 60.83 60.83 0 0 0-11.05 8.74l-52.25 52.26a23.88 23.88 0 0 0 33.78 33.78l30.29-30.29 12.29 12.3s.08.07.24.24l.31.3c.06.06.12.13.19.19l.41.4 90.2 90.2 2.45 2.46a18.73 18.73 0 0 1-26.5 26.49z" class="cls-5"></path>
  <path fill="#c2f9ec" class="cls-6" d="m156.61 104.66-90.78 90.78-8.49 8.48-48.17-48.17L116.41 48.51l48.18 48.17-7.98 7.98z"></path>
  <path fill="url(#a)" d="M496.19 143.36 399.85 47a7.93 7.93 0 0 0-11.22 0l-48.17 48.19a7.93 7.93 0 0 0 0 11.22l4.81 4.81-11 11a24.8 24.8 0 0 1-27.68 4.86 68.52 68.52 0 0 0-61.1 2.27 53.47 53.47 0 0 0-31.1 1.65 24.7 24.7 0 0 1-26.2-5.5l-19.83-19.83 2.36-2.36a7.93 7.93 0 0 0 0-11.22L122.55 44a7.93 7.93 0 0 0-11.22 0L4.09 151.2a7.93 7.93 0 0 0 0 11.22l48.17 48.17a7.93 7.93 0 0 0 11.22 0l2.87-2.87 14 14a24.27 24.27 0 0 1 6.76 12.74A124.59 124.59 0 0 0 121.62 300l2.63 2.63A28.53 28.53 0 0 0 145 350.77h1.43a28.53 28.53 0 0 0 28.5 30h.64a28.54 28.54 0 0 0 48.72 20.81c.45-.45.88-.92 1.3-1.4a26.69 26.69 0 0 0 33.67-15.57l.81.81a26.68 26.68 0 0 0 43.87-9.58 26.67 26.67 0 0 0 42.35-21.58 26.9 26.9 0 0 0-.75-6.31 26.68 26.68 0 0 0 16.38-41.57l6.36-6.36a124.54 124.54 0 0 0 34.66-66.33 21.42 21.42 0 0 1 6.06-11.43l23.67-23.67 4.16 4.16a7.93 7.93 0 0 0 11.22 0l48.17-48.17a7.93 7.93 0 0 0 0-11.22h-.03zM20.92 156.81l96-96 37 37-96 96-37-37zM136 331.21a12.69 12.69 0 1 1 17.94 0 12.61 12.61 0 0 1-17.94 0zm38.9 33.64a12.69 12.69 0 1 1 9-3.72 12.6 12.6 0 0 1-9.01 3.72h.01zM213 390.3a12.68 12.68 0 1 1 0-17.94 12.6 12.6 0 0 1 0 17.94zm134.75-60.9a10.79 10.79 0 0 1-15.27 0l-77-76.95a7.93 7.93 0 0 0-11.22 11.22l82.9 82.9a10.81 10.81 0 1 1-15.28 15.28l-14-14-.23-.24-.07-.07-64.29-64.29a7.93 7.93 0 1 0-11.22 11.22l64.5 64.5a10.8 10.8 0 0 1-15.38 15.17l-69.88-69.94a7.93 7.93 0 1 0-11.22 11.22l51.84 51.84a10.81 10.81 0 0 1-7.65 18.44 11 11 0 0 1-2-.2 28.54 28.54 0 0 0-28.23-32.78h-.64a28.52 28.52 0 0 0-28.53-29.18h-1.42a28.52 28.52 0 0 0-34.94-29.22l-5.69-5.69a108.78 108.78 0 0 1-30.13-57.2 40.07 40.07 0 0 0-11.14-21.05l-14-14 79.57-79.57L177 136.76a40.45 40.45 0 0 0 28.63 11.7 41.59 41.59 0 0 0 14.21-2.5 37.33 37.33 0 0 1 6.93-1.78l-49.15 49.12a31.82 31.82 0 0 0 45 45l24.67-24.67 6.68 6.68.28.28.27.27.23.22 93 93a10.8 10.8 0 0 1 0 15.28v.04zm50-118.35a37.21 37.21 0 0 0-10.45 19.77 108.75 108.75 0 0 1-30.3 57.91l-6.1 6.1-50.19-50.19c1.09.08 2.19.13 3.29.13a40.49 40.49 0 0 0 15.46-3 7.93 7.93 0 0 0-6-14.69c-20.42 8.35-44.9-14.67-47.62-17.32l-.14-.13-.28-.28-.25-.24-6.68-6.68 7.57-7.57a7.93 7.93 0 1 0-11.22-11.22l-13.14 13.14-30.27 30.27a16 16 0 1 1-22.56-22.56l52.25-52.25A52.61 52.61 0 0 1 300 141.57a40.75 40.75 0 0 0 45.45-8.09l11-11 64.93 64.93-23.63 23.64zm44.66-25.12-85.12-85.13 37-37 85.07 85.2-36.95 36.93z" class="cls-7"></path>
  <circle fill="url(#c)" r="7.93" cy="155.04" cx="450.4" class="cls-8"></circle>
  <circle fill="url(#d)" r="7.93" cy="162.88" cx="53.74" class="cls-9"></circle>
</svg>
