<?xml version="1.0" encoding="UTF-8"?>
<svg xmlns="http://www.w3.org/2000/svg" xmlns:xlink="http://www.w3.org/1999/xlink" width="500" height="500" data-name="Layer 1">
  <defs>
    <linearGradient y2=".5" x2="1.016" y1=".5" x1="-.016" id="b">
      <stop stop-color="#2ecc71" offset="0"></stop>
      <stop stop-color="#2ac979" offset=".3"></stop>
      <stop stop-color="#20c18e" offset=".76"></stop>
      <stop stop-color="#1abc9c" offset="1"></stop>
    </linearGradient>
    <linearGradient y2=".5" x2="1" y1=".5" x1="0" id="a">
      <stop stop-color="#2ecc71" offset="0"></stop>
      <stop stop-color="#2ac97a" offset=".31"></stop>
      <stop stop-color="#1fc091" offset=".81"></stop>
      <stop stop-color="#1abc9c" offset="1"></stop>
    </linearGradient>
    <linearGradient xlink:href="#a" y2="134.79" x2="327.38" y1="134.79" x1="214.05" id="c"></linearGradient>
    <linearGradient xlink:href="#a" y2="178.47" x2="378.74" y1="178.47" x1="214.05" id="d"></linearGradient>
    <linearGradient xlink:href="#a" y2="222.15" x2="378.74" y1="222.15" x1="214.05" id="e"></linearGradient>
    <linearGradient xlink:href="#a" y2="265.84" x2="378.74" y1="265.84" x1="214.05" id="f"></linearGradient>
    <linearGradient xlink:href="#a" y2="309.52" x2="378.74" y1="309.52" x1="214.05" id="g"></linearGradient>
  </defs>
  <circle stroke="url(#b)" stroke-width="14" stroke-miterlimit="10" fill="#9eefd2" r="225" cy="264" cx="249.33" class="cls-1"></circle>
  <path fill="#c2f9ec" class="cls-2" d="M367.41 104.13h63.35l-31.67-31.67-31.68-31.67v63.34z"></path>
  <path fill="#e2f7f2" d="M143.88 184.63h-4.23a46.56 46.56 0 0 0-46.5 46.5v18l3.92-6.13.06-.11a4.18 4.18 0 0 1 3.45-1.86h.21c2.31 0 38.89-.92 55.8-24.29a4.25 4.25 0 0 1 7.59 1.57c0 .19 4.71 19.39 19.8 22.82h.16l.34.1h.09l.22.08.18.09.2.1.22.14.13.08.2.15.11.09.18.16.12.12.14.16.14.16.12.16 3.86 5.51v-17.09a46.56 46.56 0 0 0-46.51-46.51z" class="cls-3"></path>
  <path fill="#c2f9ec" d="m93.51 254.52-.78.15-.49.62a4.23 4.23 0 0 1-3.19 1.62h-.79l-.58.54A11.89 11.89 0 0 0 94 278l2.45.37v-24.28l-2.53.37-.41.06z" class="cls-2"></path>
  <path fill="#e2f7f2" d="M145.9 318.34h-8.07a41.53 41.53 0 0 1-7.6-.71l-2.51-.47v13.48l14 13.59L156 329.34v-12.18l-2.51.47a41.63 41.63 0 0 1-7.59.71zM195.51 257.26l-.53-.46-.7-.06a4.21 4.21 0 0 1-2.86-1.46l-.46-.54-.69-.15-.42-.08-2.52-.48v24.37l2.51-.46a11.9 11.9 0 0 0 5.68-20.68h-.01zM159.72 230.27l-1.27-2.51-2.07 1.91c-15.81 14.64-37.82 18.51-49.53 19.52l-1.94.17v27.56a33 33 0 0 0 32.93 32.93h8.07a33 33 0 0 0 32.93-32.93v-28.47l-1.32-.54c-9.25-3.78-14.79-11.68-17.8-17.64z" class="cls-3"></path>
  <path fill="#e2f7f2" d="m200.1 348.19-.24-.09-36.15-14.5-18.89 19.6a4.25 4.25 0 0 1-6 .1l-18.3-17.82a4.59 4.59 0 0 1-.35-.39l-1-1.21-36.33 14.23-.22.08c-.94.33-23.13 8.41-23.13 36.41v32.55h163.76V384.6c0-28.31-22.92-36.34-23.15-36.41z" class="cls-3"></path>
  <path fill="#e2f7f2" d="M361 116.88a6.37 6.37 0 0 1-6.37-6.37V31.77H150v142.58a57.2 57.2 0 0 1 51 56.79v16.92a22.53 22.53 0 0 1-13.21 40.7 43.74 43.74 0 0 1-21.16 26.44v8.13l37 14.85c10.56 3.64 30.21 17.9 30.21 46.43v25.32h205.9v-293l-78.74-.05zm-140.57 11.54H321a6.37 6.37 0 1 1 0 12.75H220.43a6.37 6.37 0 1 1 0-12.75zm151.93 187.47H220.43a6.37 6.37 0 0 1 0-12.75h151.93a6.37 6.37 0 1 1 0 12.75zm0-43.68H220.43a6.37 6.37 0 0 1 0-12.75h151.93a6.37 6.37 0 1 1 0 12.75zm0-43.68H220.43a6.37 6.37 0 0 1 0-12.75h151.93a6.37 6.37 0 1 1 0 12.75zm0-43.68H220.43a6.37 6.37 0 0 1 0-12.75h151.93a6.37 6.37 0 1 1 0 12.75z" class="cls-3"></path>
  <path fill="#c2f9ec" d="M103.35 231.14a46.56 46.56 0 0 1 43.52-46.4c-1-.06-2-.11-3-.11h-4.23a46.56 46.56 0 0 0-46.5 46.5v18l3.93-6.13.06-.11a4.18 4.18 0 0 1 3.45-1.86h.21c.3 0 1.2 0 2.56-.11v-9.78zM148 318.34h8v-1.18l-2.51.47a41.88 41.88 0 0 1-6.54.69l1.05.02zM137.91 330.64v-12.3h-.08a41.53 41.53 0 0 1-7.6-.71l-2.51-.47v13.48l14 13.59 4.94-5.12-8.75-8.47zM115.1 276.91v-27.56l1.94-.17c10.54-.91 29.42-4.14 44.62-15.45a44.98 44.98 0 0 1-1.94-3.47l-1.27-2.51-2.07 1.91c-15.81 14.64-37.82 18.51-49.53 19.52l-1.94.17v27.56a33 33 0 0 0 32.93 32.93h9.14a33 33 0 0 1-31.88-32.93zM92.82 348.19l.22-.08 28.84-11.3-1.38-1.34a4.59 4.59 0 0 1-.35-.39l-1-1.21-36.31 14.24-.22.08c-.94.33-23.13 8.41-23.13 36.41v27.45h10.2V384.6c0-27.99 22.19-36.08 23.13-36.41z" class="cls-2"></path>
  <path fill="#c2f9ec" d="m213.86 338.18-37-14.85v-8.13A43.74 43.74 0 0 0 198 288.76a22.58 22.58 0 0 0 21.63-16.61 6.37 6.37 0 0 1-.21-12.6 22.64 22.64 0 0 0-8.21-11.49v-16.92a57.2 57.2 0 0 0-51-56.79V31.77H150v142.58a57.2 57.2 0 0 1 51 56.79v16.92a22.53 22.53 0 0 1-13.21 40.7 43.74 43.74 0 0 1-21.16 26.44v8.13l37 14.85c10.56 3.64 30.21 17.9 30.21 46.43v25.32h10.2V384.6c.03-28.52-19.62-42.79-30.18-46.42z" class="cls-2"></path>
  <path fill="url(#a)" d="M452.51 110.29v-.21a6.23 6.23 0 0 0-.1-.81 6.4 6.4 0 0 0-.22-.79l-.07-.2a6.39 6.39 0 0 0-.32-.72 6.51 6.51 0 0 0-.44-.7l-.13-.17a6.26 6.26 0 0 0-.55-.64l-49.21-49.24-35.92-35.92a6.3 6.3 0 0 0-.64-.55l-.17-.12a6.32 6.32 0 0 0-.7-.44 6.26 6.26 0 0 0-.71-.31l-.2-.07a6.4 6.4 0 0 0-.79-.22 6.4 6.4 0 0 0-.78-.1H143.67a6.37 6.37 0 0 0-6.37 6.37v148.62a57.24 57.24 0 0 0-54.83 57.12v16.88a22.55 22.55 0 0 0 13.24 40.8h.17a43.79 43.79 0 0 0 21.19 26.48v8.11l-38 14.9c-10.56 3.63-30.26 17.9-30.26 46.48v31.72a6.38 6.38 0 0 0 6.37 6.38h28.17a6.37 6.37 0 1 0 0-12.75H61.52v-25.36c0-26.54 20.88-34.15 21.74-34.45l.29-.11 34.93-13.68a6.46 6.46 0 0 0 .51.57L137.32 355a6.37 6.37 0 0 0 4.45 1.81h.1a6.37 6.37 0 0 0 4.49-2l17.92-18.59 34.87 14 .34.13c.22.07 21.74 7.61 21.74 34.45v25.36H105.72a6.37 6.37 0 1 0 0 12.75H227.6a6.25 6.25 0 0 0 1.76-.26h216.78a6.37 6.37 0 0 0 6.37-6.37V110.51c.01-.08 0-.15 0-.22zm-85.09-69.5 19.94 19.94 5.09 5.09 21.93 21.93 16 16 .41.41h-63.38V40.79h.01zm-227.76 146h4.23a44.48 44.48 0 0 1 44.43 44.43v10.44-.06l-.17-.23-.2-.24-.21-.23-.2-.2-.25-.23-.21-.17-.28-.21-.24-.15-.28-.17-.29-.15-.26-.12-.35-.14-.23-.08-.4-.11h-.17c-13.89-3.16-18.24-21.11-18.27-21.27a6.37 6.37 0 0 0-11.38-2.33c-16.79 23.21-53.74 23.44-54.25 23.44a6.33 6.33 0 0 0-.65 0h-.19l-.44.07-.28.07-.33.08-.33.12-.25.09-.39.19-.17.08-.38.23-.27.06-.36.27-.13.1-.32.29-.13.12c-.1.1-.19.2-.28.31l-.13.14c-.09.1-.16.21-.24.32l-.12.17-.11.18v-10.71a44.49 44.49 0 0 1 44.47-44.43l.01.03zm49.84 69.92.37.07a6.35 6.35 0 0 0 4.3 2.19 9.79 9.79 0 0 1-4.68 17l.01-19.26zm-103.6 9.61a9.77 9.77 0 0 1 3.17-7.2 6.35 6.35 0 0 0 4.78-2.43l.38-.06V276a9.82 9.82 0 0 1-8.33-9.68zM107 277v-25.63c11.13-1 34.33-4.78 50.86-20.1 3.38 6.68 9.26 14.73 18.91 18.68V277a30.88 30.88 0 0 1-30.85 30.85h-8.07A30.88 30.88 0 0 1 107 277zm34.64 64.39-11.8-11.5v-10a43.64 43.64 0 0 0 8 .75h8.07a43.56 43.56 0 0 0 8-.75v8.79l-12.27 12.71zM234 409.93v-25.1c0-28.56-19.67-42.83-30.24-46.47l-37.07-14.87v-8.15a43.78 43.78 0 0 0 21.19-26.47 22.55 22.55 0 0 0 13.22-40.74v-16.94a57.26 57.26 0 0 0-51-56.84V31.77h204.57v78.73a6.37 6.37 0 0 0 6.37 6.37h78.73v293l-205.77.06z" class="cls-4"></path>
  <path fill="url(#c)" d="M220.43 141.16H321a6.37 6.37 0 1 0 0-12.75H220.43a6.37 6.37 0 1 0 0 12.75z" class="cls-5"></path>
  <path fill="url(#d)" d="M372.36 172.1H220.43a6.37 6.37 0 0 0 0 12.75h151.93a6.37 6.37 0 1 0 0-12.75z" class="cls-6"></path>
  <path fill="url(#e)" d="M372.36 215.78H220.43a6.37 6.37 0 0 0 0 12.75h151.93a6.37 6.37 0 1 0 0-12.75z" class="cls-7"></path>
  <path fill="url(#f)" d="M372.36 259.46H220.43a6.37 6.37 0 0 0 0 12.75h151.93a6.37 6.37 0 1 0 0-12.75z" class="cls-8"></path>
  <path fill="url(#g)" d="M372.36 303.14H220.43a6.37 6.37 0 0 0 0 12.75h151.93a6.37 6.37 0 1 0 0-12.75z" class="cls-9"></path>
  <path fill="#1abc9c" d="M465.29 348.69a232.39 232.39 0 0 1-66.4 92.63l-11.39-8.73A225.41 225.41 0 0 0 452.91 342l12.38 6.69z" class="cls-10"></path>
  <path fill="#2ecc71" d="M33.5 348.69a232.39 232.39 0 0 0 66.4 92.63l11.39-8.73A225.41 225.41 0 0 1 45.88 342l-12.38 6.69z" class="cls-11"></path>
  <path fill="#fff" d="M45.84 375.5A279.51 279.51 0 0 0 82 424.75l-36.17.08.01-49.33zM453 375.5a279.51 279.51 0 0 1-36.16 49.25l36.17.08-.01-49.33z" class="cls-12"></path>
</svg>
